<svg id="Capa_1" data-name="Capa 1" xmlns="http://www.w3.org/2000/svg" viewBox="0 0 255 226.79"><defs><style>.cls-1,.cls-4{fill:#333;}.cls-2{fill:#fff;}.cls-3{fill:none;}.cls-4{font-size:27px;font-family:MicrosoftSansSerif, Microsoft Sans Serif;}</style></defs><title>Restaurant-logo</title><polygon class="cls-1" points="48 0 48 52 0 52 20 86 0 120 48 120 48 172 207 172 207 120 255 120 237 86 255 51 207 51 207 0 48 0"/><rect class="cls-2" x="55" y="7" width="146" height="159"/><path class="cls-1" d="M151,130l-39,41a3,3,0,0,1-1.06.38,10.37,10.37,0,0,1-2.59.47,7,7,0,0,1-3.14-.48,5.89,5.89,0,0,1-2.76-2.48,12.32,12.32,0,0,1-1.41-5.52,2.26,2.26,0,0,1,.57-2l.6-.59L104,159.1l2.39-2.33,2.91-2.84,3.3-3.22,3.59-3.5,3.75-3.66,3.81-3.71,3.73-3.64,3.55-3.46,3.24-3.17,2.83-2.76,2.3-2.24L141,123l.88-.85L142,122s-1-8-11-13l-.89,0-2.31-.13-3.21-.18-3.59-.2-3.44-.19c-2-.11-4.22-.27-5.78-1.63-1.35-1.18-2.14-2.77-3.26-4.15-.78-1-1.63-1.9-2.42-2.87L103.94,97l-2.25-2.74-2.26-2.74-2.18-2.66-2-2.48-1.81-2.2-1.5-1.82L90.8,81l-.66-.8S90,80.06,90,80s-2-5-1-6c0,0,3-1,6,2l23,26,3-3L95,74s-2-4-1-5a7.81,7.81,0,0,1,5,2l25,25,2-2L100,69s-2-4-1-5c0,0,1-1,4,1l26,26,2-2L105,64s-2-3-1-4a13.38,13.38,0,0,1,5,1l11.85,9.81,9.3,7.69c2.52,2.09,6.48,4.45,7.69,7.61.6,1.56.42,3.53.51,5.19l.3,5.34L139,103s8,10,11,11c0,0,10-5,15-12,0,0-4-13,1-24,0,0,11-17,22-18,0,0,11-3,20,4,0,0,8,6,6,18,0,0,0,13-18,24,0,0-9,5-25,2,0,0-12,9-12,12l42,42s4,13-10,10Z" transform="translate(-23 -30)"/><path class="cls-3" d="M187,114" transform="translate(-23 -30)"/><path class="cls-2" d="M187,69a1.34,1.34,0,0,1-.37.16c-.35.16-.7.34-1,.52-.53.29-1,.61-1.54.94-.65.43-1.28.9-1.89,1.39a27,27,0,0,0-2.09,1.91,26.49,26.49,0,0,0-2.14,2.47,27.37,27.37,0,0,0-2,3.08,28.58,28.58,0,0,0-1.78,3.75,31.51,31.51,0,0,0-1.38,4.46c-.18.75-.33,1.51-.46,2.27l-.18,1.22c0,.23,0,.63-.17.8s-.83-.12-1-.28c-1.06-.84-1-2.67-1-3.87a18.23,18.23,0,0,1,2.79-9.59A40.57,40.57,0,0,1,178,71.59c2.17-2.14,4.86-4.2,8-4.59C186,67,188,68,187,69Z" transform="translate(-23 -30)"/><text class="cls-4" transform="translate(37.71 219.86)">RESTAURANT</text></svg>